<?xml version="1.0" standalone="no"?><!DOCTYPE svg PUBLIC "-//W3C//DTD SVG 1.1//EN" "http://www.w3.org/Graphics/SVG/1.1/DTD/svg11.dtd"><svg t="1493452434254" class="icon" style="" viewBox="0 0 1025 1024" version="1.1" xmlns="http://www.w3.org/2000/svg" p-id="10932" xmlns:xlink="http://www.w3.org/1999/xlink" width="200.1953125" height="200"><defs><style type="text/css"></style></defs><path d="M874.203736 149.813825c-199.728352-199.728352-524.679121-199.775181-724.407473 0C-49.932088 349.542176-49.932088 674.492946 149.796264 874.221297c199.728352 199.728352 524.725951 199.681522 724.454302 0C1073.978918 674.446116 1073.932088 349.542176 874.203736 149.813825zM808.361283 808.332015c-163.435392 163.435392-429.287174 163.388562-592.722566 0-163.435392-163.435392-163.435392-429.240345 0-592.675737 163.388562-163.388562 429.287174-163.435392 592.675737 0C971.796675 379.04484 971.796675 644.943452 808.361283 808.332015zM511.227311 615.674937l1.920015 0c27.582649 0 50.435506-22.618709 50.435506-50.201358L563.582832 276.62845c0-27.629479-22.806027-50.201358-50.435506-50.201358L511.227311 226.427092c-27.629479 0-50.388677 22.571879-50.388677 50.201358l0 288.845128C460.838634 593.056228 483.644662 615.674937 511.227311 615.674937zM512.163904 686.200352c-34.513434 0-62.51755 28.004116-62.51755 62.51755 0 34.513434 28.004116 62.51755 62.51755 62.51755s62.51755-28.004116 62.51755-62.51755C574.728283 714.204468 546.724167 686.200352 512.163904 686.200352z" p-id="10933" fill="#ef913e"></path></svg>