<?xml version="1.0" standalone="no"?><!DOCTYPE svg PUBLIC "-//W3C//DTD SVG 1.1//EN" "http://www.w3.org/Graphics/SVG/1.1/DTD/svg11.dtd"><svg t="1493452157651" class="icon" style="" viewBox="0 0 1024 1024" version="1.1" xmlns="http://www.w3.org/2000/svg" p-id="5637" xmlns:xlink="http://www.w3.org/1999/xlink" width="200" height="200"><defs><style type="text/css"></style></defs><path d="M441.6 736c6.4 6.4 12.8 6.4 25.6 6.4s25.6-6.4 32-12.8l275.2-275.2c12.8-12.8 19.2-44.8 0-64-19.2-19.2-44.8-19.2-64 0L467.2 640 313.6 486.4c-19.2-19.2-44.8-19.2-64 0s-19.2 44.8 0 64l185.6 179.2s0 6.4 6.4 6.4z" p-id="5638" fill="#51b53c"></path><path d="M512 12.8C236.8 12.8 12.8 236.8 12.8 512c0 96 25.6 185.6 70.4 256 6.4 12.8 25.6 19.2 38.4 19.2 25.6 0 44.8-19.2 44.8-44.8 0-6.4 0-19.2-6.4-25.6-32-57.6-57.6-128-57.6-204.8 0-230.4 185.6-409.6 409.6-409.6 230.4 0 409.6 185.6 409.6 409.6 0 230.4-185.6 409.6-409.6 409.6-83.2 0-166.4-25.6-230.4-70.4-6.4 0-12.8-6.4-19.2-6.4-25.6 0-44.8 19.2-44.8 44.8 0 12.8 6.4 25.6 19.2 38.4 76.8 57.6 179.2 83.2 281.6 83.2 275.2 0 499.2-224 499.2-499.2C1011.2 236.8 787.2 12.8 512 12.8z" p-id="5639" fill="#51b53c"></path></svg>