<?xml version="1.0" standalone="no"?><!DOCTYPE svg PUBLIC "-//W3C//DTD SVG 1.1//EN" "http://www.w3.org/Graphics/SVG/1.1/DTD/svg11.dtd"><svg t="1493550881850" class="icon" style="" viewBox="0 0 1024 1024" version="1.1" xmlns="http://www.w3.org/2000/svg" p-id="3191" xmlns:xlink="http://www.w3.org/1999/xlink" width="200" height="200"><defs><style type="text/css"></style></defs><path d="M512 0C229.223705 0 0.005172 229.228876 0.005172 512.005172s229.218533 511.994828 511.994828 511.994828c282.765952 0 511.994828-229.218533 511.994828-511.994828S794.765952 0 512 0zM512 993.104474c-265.699458 0-481.099302-215.389501-481.099302-481.099302S246.300542 30.90587 512 30.90587c265.699458 0 481.088959 215.389501 481.088959 481.099302S777.699458 993.104474 512 993.104474z" p-id="3192" fill="#51b53c"></path><path d="M352.319674 529.909476l-13.922122 15.556368c0 0 84.339512 83.522389 106.463894 118.731084l13.922122 0c0 0 90.069716-196.533611 226.818881-305.428188l0-19.652327c0 0-184.245735 130.201836-252.211755 240.751346L352.319674 529.909476z" p-id="3193" fill="#51b53c"></path></svg>